<?xml version="1.0" encoding="UTF-8" standalone="no"?><!DOCTYPE svg PUBLIC "-//W3C//DTD SVG 1.1//EN" "http://www.w3.org/Graphics/SVG/1.1/DTD/svg11.dtd"><svg width="100%" height="100%" viewBox="0 0 354 354" version="1.1" xmlns="http://www.w3.org/2000/svg" xmlns:xlink="http://www.w3.org/1999/xlink" xml:space="preserve" style="fill-rule:evenodd;clip-rule:evenodd;stroke-linejoin:round;stroke-miterlimit:1.41421;"><path id="Call-Icon" d="M330.086,353.106l-107.466,0c-12.719,0 -23.03,-10.308 -23.03,-23.025l0,-107.469c0,-12.717 10.311,-23.025 23.03,-23.025l107.466,0c12.72,0 23.03,10.308 23.03,23.025l0,107.469c0,12.717 -10.31,23.025 -23.03,23.025Zm0,-199.582l-107.466,0c-12.719,0 -23.03,-10.308 -23.03,-23.025l0,-107.47c0,-12.721 10.311,-23.029 23.03,-23.029l107.466,0c12.72,0 23.03,10.308 23.03,23.029l0,107.47c0,12.717 -10.31,23.025 -23.03,23.025Zm-199.581,199.582l-107.467,0c-12.719,0 -23.029,-10.308 -23.029,-23.025l0,-107.469c0,-12.717 10.31,-23.025 23.029,-23.025l107.467,0c12.717,0 23.028,10.308 23.028,23.025l0,107.469c0,12.717 -10.311,23.025 -23.028,23.025Zm0,-199.582l-107.467,0c-12.719,0 -23.029,-10.308 -23.029,-23.025l0,-107.47c0,-12.721 10.31,-23.029 23.029,-23.029l107.467,0c12.717,0 23.028,10.308 23.028,23.029l0,107.47c0,12.717 -10.311,23.025 -23.028,23.025Z"/></svg>