<?xml version="1.0" encoding="UTF-8" standalone="no"?><!DOCTYPE svg PUBLIC "-//W3C//DTD SVG 1.1//EN" "http://www.w3.org/Graphics/SVG/1.1/DTD/svg11.dtd"><svg width="100%" height="100%" viewBox="0 0 354 354" version="1.1" xmlns="http://www.w3.org/2000/svg" xmlns:xlink="http://www.w3.org/1999/xlink" xml:space="preserve" style="fill-rule:evenodd;clip-rule:evenodd;stroke-linejoin:round;stroke-miterlimit:1.41421;"><path id="Settings-Icon" d="M338.403,205.979l-33.12,0c-3.35,14.663 -9.352,28.233 -17.08,40.604l23.604,23.607c5.747,5.739 5.747,15.055 0,20.802l-20.806,20.805c-5.747,5.747 -15.061,5.747 -20.808,0l-23.473,-23.473c-12.38,7.831 -25.986,13.896 -40.734,17.253l0,32.821c0,8.117 -6.586,14.708 -14.712,14.708l-29.424,0c-8.125,0 -14.714,-6.591 -14.714,-14.708l0,-32.821c-14.749,-3.357 -28.351,-9.422 -40.731,-17.253l-23.473,23.473c-5.747,5.747 -15.065,5.747 -20.809,0l-20.806,-20.805c-5.748,-5.747 -5.748,-15.063 0,-20.802l23.604,-23.607c-7.731,-12.371 -13.73,-25.941 -17.079,-40.604l-33.124,0c-8.121,0 -14.71,-6.591 -14.71,-14.708l0,-29.432c0,-8.125 6.589,-14.708 14.71,-14.708l33.124,0c3.349,-14.663 9.348,-28.228 17.079,-40.599l-23.604,-23.608c-5.748,-5.751 -5.748,-15.062 0,-20.809l20.806,-20.81c5.744,-5.747 15.062,-5.747 20.809,0l23.473,23.473c12.38,-7.823 25.982,-13.888 40.731,-17.249l0,-32.813c0,-8.129 6.589,-14.716 14.714,-14.716l29.424,0c8.126,0 14.712,6.587 14.712,14.716l0,32.813c14.748,3.361 28.354,9.426 40.734,17.249l23.473,-23.473c5.747,-5.747 15.061,-5.747 20.808,0l20.806,20.81c5.747,5.747 5.747,15.058 0,20.809l-23.604,23.608c7.728,12.371 13.73,25.936 17.08,40.599l33.12,0c8.127,0 14.714,6.583 14.714,14.708l0,29.432c0,8.117 -6.587,14.708 -14.714,14.708Zm-161.842,-117.699c-48.755,0 -88.276,39.518 -88.276,88.267c0,48.765 39.521,88.284 88.276,88.284c48.755,0 88.279,-39.519 88.279,-88.284c0,-48.749 -39.524,-88.267 -88.279,-88.267Zm0,132.415c-24.375,0 -44.139,-19.77 -44.139,-44.148c0,-24.374 19.764,-44.136 44.139,-44.136c24.379,0 44.138,19.762 44.138,44.136c0,24.378 -19.759,44.148 -44.138,44.148Z"/></svg>