<?xml version="1.0" encoding="UTF-8" standalone="no"?><!DOCTYPE svg PUBLIC "-//W3C//DTD SVG 1.1//EN" "http://www.w3.org/Graphics/SVG/1.1/DTD/svg11.dtd"><svg width="100%" height="100%" viewBox="0 0 2368 499" version="1.1" xmlns="http://www.w3.org/2000/svg" xmlns:xlink="http://www.w3.org/1999/xlink" xml:space="preserve" style="fill-rule:evenodd;clip-rule:evenodd;stroke-linejoin:round;stroke-miterlimit:1.41421;"><g><g><path d="M62.426,186.059c0,74.402 53.924,124.231 128.667,124.231c37.542,0 61.774,-9.556 81.569,-23.549l-25.597,-68.6c-10.921,9.897 -26.621,18.771 -46.416,18.771c-26.621,0 -47.781,-19.795 -47.781,-50.853c0,-29.692 20.478,-50.17 47.781,-50.17c18.43,0 33.106,7.168 44.709,18.43l25.939,-68.258c-19.113,-13.311 -44.027,-23.549 -80.204,-23.549c-77.815,0 -128.667,54.948 -128.667,123.547Z" style="fill:#3d4d65;"/><path d="M288.703,305.853l86.688,0l0,-85.664l50.511,0l0,85.664l86.688,0l0,-238.905l-86.688,0l0,86.006l-50.511,0l0,-86.006l-86.688,0l0,238.905Z" style="fill:#3d4d65;"/><path d="M675.728,269.335l10.58,36.518l88.736,0l-82.592,-238.905l-85.324,0l-82.592,238.905l84.64,0l10.58,-36.518l55.972,0Zm-14.675,-60.75l-26.962,0l13.651,-49.146l13.311,49.146Z" style="fill:#3d4d65;"/><path d="M895.521,66.948l-108.531,0l0,238.905l84.299,0l0,-115.015l23.549,96.927l76.45,0l23.549,-96.927l0,115.015l84.299,0l0,-238.905l-108.531,0l-37.542,135.835l-37.542,-135.835Z" style="fill:#3d4d65;"/><path d="M1242.27,269.335l10.58,36.518l88.736,0l-82.593,-238.905l-85.323,0l-82.593,238.905l84.641,0l10.58,-36.518l55.972,0Zm-14.676,-60.75l-26.962,0l13.652,-49.146l13.31,49.146Z" style="fill:#3d4d65;"/><path d="M1353.54,305.853l85.323,0c80.204,0 133.446,-46.074 133.446,-119.794c0,-74.743 -53.925,-119.111 -133.446,-119.111l-85.323,0l0,238.905Zm83.958,-170.646l5.119,0c24.915,0 41.297,16.041 41.297,50.852c0,34.812 -16.382,51.536 -41.297,51.536l-5.119,0l0,-102.388Z" style="fill:#3d4d65;"/><path d="M1709.84,310.29c81.569,0 132.081,-54.266 132.081,-124.231c0,-68.941 -50.512,-123.547 -132.081,-123.547c-81.569,0 -132.08,54.606 -132.08,123.547c0,69.965 50.511,124.231 132.08,124.231Zm0,-176.448c26.621,0 41.638,22.184 41.638,52.217c0,31.058 -15.017,52.901 -41.638,52.901c-26.962,0 -41.637,-21.843 -41.637,-52.901c0,-30.033 14.675,-52.217 41.637,-52.217Z" style="fill:#3d4d65;"/></g><g><path d="M240.813,383.684c0,-3.822 0.239,-8.361 0.717,-11.227c8.122,1.911 18.155,2.627 25.799,2.627c37.027,0 52.077,-16.244 52.077,-32.01c0,-15.527 -15.767,-31.055 -48.494,-31.055c-49.687,0 -86.475,33.205 -86.475,73.337c0,30.577 20.305,50.882 60.676,50.882c25.083,0 45.149,-7.644 58.765,-22.693l-0.955,-1.195c-10.033,6.45 -19.35,10.511 -32.011,10.511c-19.827,0 -30.099,-14.811 -30.099,-39.177Zm0.956,-13.138c5.494,-37.744 21.26,-56.616 29.143,-56.616c3.584,0 6.45,3.345 6.45,11.706c0,19.827 -18.394,43.237 -35.593,44.91Z" style="fill:url(#_Linear1);"/><path d="M401.82,341.641c3.822,6.927 11.228,10.511 18.394,10.511c10.989,0 18.155,-6.689 18.155,-15.767c0,-13.616 -14.333,-24.366 -45.388,-24.366c-34.876,0 -59.72,15.528 -59.72,41.088c0,34.638 54.226,39.655 54.226,65.215c0,8.839 -7.405,15.528 -17.916,15.528c-13.139,0 -19.588,-10.272 -19.588,-21.5c0,-6.211 2.866,-12.9 6.211,-16.961c-4.061,-3.822 -9.556,-5.972 -15.767,-5.972c-11.466,0 -19.827,8.122 -19.827,18.394c0,13.617 11.705,28.427 51.599,28.427c41.804,0 64.737,-16.244 64.737,-42.998c0,-35.116 -55.66,-39.655 -55.66,-65.693c0,-8.839 7.644,-13.617 14.811,-13.617c10.033,0 14.333,4.778 14.333,10.989c0,5.494 -3.344,11.944 -8.6,16.722Z" style="fill:url(#_Linear2);"/><path d="M536.311,313.93c6.928,0 9.317,5.972 9.317,13.378c0,9.077 -5.017,20.544 -10.033,26.994c4.538,4.538 13.616,7.166 21.021,7.166c16.244,0 25.8,-9.077 25.8,-21.26c0,-16.245 -17.2,-28.189 -47.538,-28.189c-46.821,0 -85.042,33.205 -85.042,72.86c0,31.054 21.499,51.359 62.109,51.359c25.083,0 43.238,-7.405 58.288,-22.693l-0.717,-0.956c-10.511,6.45 -21.261,10.272 -34.399,10.272c-19.827,0 -28.905,-17.438 -28.905,-40.132c0,-38.222 16.005,-68.799 30.099,-68.799Z" style="fill:url(#_Linear3);"/><path d="M671.519,312.019c-51.599,0 -84.565,36.311 -84.565,72.143c0,32.01 25.8,52.076 59.721,52.076c51.838,0 84.326,-36.31 84.326,-72.142c0,-32.011 -25.799,-52.077 -59.482,-52.077Zm-19.35,122.308c-6.449,0 -10.51,-11.466 -10.51,-31.532c0,-31.055 11.705,-88.865 23.888,-88.865c6.45,0 10.272,11.467 10.272,31.055c0,31.055 -11.466,89.342 -23.65,89.342Z" style="fill:url(#_Linear4);"/><path d="M820.821,252.299c0,0 -32.249,11.944 -68.56,11.944l0.717,2.15c7.644,0 11.228,2.389 11.228,9.077c0,0.956 -0.239,3.106 -0.478,4.778l-17.677,124.936c-0.478,3.105 -0.478,5.494 -0.478,8.122c0.716,19.588 16.96,22.932 27.71,22.932c22.933,0 36.071,-10.272 36.071,-10.272l-0.955,-1.672c-2.389,1.434 -4.539,2.15 -6.689,2.15c-2.866,0 -4.777,-1.911 -4.777,-5.494c0,-1.433 0.238,-3.344 0.716,-6.45l23.172,-162.201Z" style="fill:url(#_Linear5);"/><path d="M888.425,418.8c-4.3,0 -8.839,-4.778 -8.839,-26.038c0,-27.233 7.883,-78.832 23.649,-78.832c5.734,0 8.6,6.211 8.6,22.933c0,32.249 -11.705,81.937 -23.41,81.937Zm81.937,-106.781c0,0 -8.361,6.211 -22.217,6.211c-16.244,0 -27.471,-6.211 -43.954,-6.211c-50.643,0 -80.742,34.638 -80.742,78.832c0,25.799 13.138,45.387 37.265,45.387c25.561,0 38.46,-14.571 45.627,-42.998l1.911,0c-2.389,7.405 -3.105,13.377 -3.105,19.349c0,19.111 16.244,23.649 26.993,23.649c22.933,0 35.116,-10.272 35.116,-10.272l-0.955,-1.672c-2.389,1.434 -4.539,2.15 -6.689,2.15c-2.867,0 -4.778,-1.911 -4.778,-5.494c0,-1.433 0.239,-3.583 0.717,-6.689l14.811,-102.242Z" style="fill:url(#_Linear6);"/><path d="M1109.15,418.8c-4.3,0 -8.839,-4.778 -8.839,-26.038c0,-27.233 7.883,-78.832 23.649,-78.832c5.734,0 8.6,6.211 8.6,22.933c0,32.249 -11.705,81.937 -23.41,81.937Zm17.916,-25.56l1.911,0c-2.389,7.405 -3.106,13.377 -3.106,19.349c0,19.111 16.244,23.649 26.994,23.649c22.933,0 35.116,-10.272 35.116,-10.272l-0.956,-1.672c-2.388,1.434 -4.538,2.15 -6.688,2.15c-2.867,0 -4.778,-1.911 -4.778,-5.494c0,-1.433 0.239,-3.583 0.717,-6.689l22.932,-161.962c0,0 -31.532,11.944 -68.081,11.944l0.716,2.15c8.361,0 12.422,2.627 11.228,11.227l-5.017,35.116c-2.388,-0.478 -5.494,-0.717 -8.36,-0.717c-50.644,0 -85.521,34.638 -85.521,78.832c0,25.799 13.139,45.387 37.266,45.387c25.561,0 38.46,-14.571 45.627,-42.998Z" style="fill:url(#_Linear7);"/><path d="M1287.6,312.019c-51.599,0 -84.564,36.311 -84.564,72.143c0,32.01 25.799,52.076 59.72,52.076c51.838,0 84.326,-36.31 84.326,-72.142c0,-32.011 -25.799,-52.077 -59.482,-52.077Zm-19.349,122.308c-6.45,0 -10.511,-11.466 -10.511,-31.532c0,-31.055 11.705,-88.865 23.888,-88.865c6.45,0 10.272,11.467 10.272,31.055c0,31.055 -11.466,89.342 -23.649,89.342Z" style="fill:url(#_Linear8);"/><path d="M1417.31,432.416c-1.673,-3.105 -2.628,-8.838 -2.628,-15.288c0,-39.894 19.827,-86.954 30.816,-86.954c1.911,0 3.105,1.195 3.344,4.778c0,4.061 -0.716,10.989 -1.194,14.094l-7.645,55.899c-0.477,3.105 -0.477,5.494 -0.477,8.361c0.716,17.438 12.899,22.932 27.949,22.932c16.005,0 26.038,-3.822 26.038,-3.822c-1.672,-3.105 -2.627,-8.838 -2.627,-15.288c0,-36.072 19.827,-86.954 30.577,-86.954c1.911,0 3.105,1.195 3.344,4.778c0,4.061 -0.717,10.989 -1.194,14.094l-7.645,56.138c-0.477,2.866 -0.477,5.494 -0.477,8.122c0.716,19.588 16.96,22.932 27.71,22.932c22.933,0 36.071,-10.272 36.071,-10.272l-0.955,-1.672c-2.15,1.434 -4.778,2.15 -6.689,2.15c-2.628,0 -4.778,-1.911 -4.778,-5.733c0,-9.077 8.122,-59.482 8.122,-59.482c1.673,-10.272 2.867,-18.633 2.867,-27.232c0,-14.095 -11.705,-21.978 -24.844,-21.978c-19.349,0 -43.715,7.645 -57.332,62.11l-1.433,0c2.628,-13.139 7.644,-26.994 7.644,-40.132c0,-14.095 -11.705,-21.978 -24.844,-21.978c-17.438,0 -43.237,5.734 -58.526,62.11l-1.433,0l12.899,-62.11c0,0 -24.127,11.706 -68.081,11.706l0.955,1.911c7.406,0 10.989,2.388 11.228,8.599c0,2.15 -0.239,5.017 -0.717,8.361l-8.839,62.349c-0.477,3.105 -0.477,5.494 -0.477,8.361c0.716,17.438 12.899,22.932 27.949,22.932c16.005,0 25.322,-3.822 25.322,-3.822Z" style="fill:url(#_Linear9);"/><path d="M1641.62,304.136c20.305,0 31.054,-11.466 31.054,-26.038c0,-11.705 -7.883,-20.544 -24.604,-20.544c-20.306,0 -30.816,11.944 -30.816,26.755c0,11.227 7.644,19.827 24.366,19.827Zm25.799,7.883c0,0 -32.249,11.944 -68.559,11.944l0.716,2.15c7.645,0 11.228,2.389 11.228,9.078c0,0.956 -0.239,3.105 -0.478,4.778l-9.078,65.215c-0.477,3.105 -0.477,5.494 -0.477,8.122c0.716,19.588 16.96,22.932 27.71,22.932c22.933,0 36.071,-10.272 36.071,-10.272l-0.955,-1.672c-2.389,1.434 -4.539,2.15 -6.689,2.15c-2.866,0 -4.777,-1.911 -4.777,-5.494c0,-1.433 0.238,-3.344 0.716,-6.45l14.572,-102.481Z" style="fill:url(#_Linear10);"/><path d="M1741.72,432.416c-1.673,-3.105 -2.628,-8.838 -2.628,-15.288c0,-39.894 19.827,-86.954 30.816,-86.954c1.911,0 3.105,1.195 3.344,4.778c0,4.061 -0.716,10.989 -1.194,14.094l-7.644,56.138c-0.478,2.866 -0.478,5.494 -0.478,8.122c0.716,19.588 16.96,22.932 27.71,22.932c22.933,0 36.072,-10.272 36.072,-10.272l-0.956,-1.672c-2.15,1.434 -4.778,2.15 -6.689,2.15c-2.627,0 -4.777,-1.911 -4.777,-5.733c0,-9.077 8.122,-59.482 8.122,-59.482c1.672,-10.272 2.866,-18.633 2.866,-27.232c0,-14.095 -11.705,-21.978 -24.844,-21.978c-17.438,0 -43.237,5.734 -58.526,62.11l-1.433,0l12.899,-62.11c0,0 -24.127,11.706 -68.081,11.706l0.955,1.911c7.406,0 10.989,2.388 11.228,8.599c0,2.15 -0.239,5.017 -0.717,8.361l-8.838,62.349c-0.478,3.105 -0.478,5.494 -0.478,8.361c0.716,17.438 12.899,22.932 27.949,22.932c16.005,0 25.322,-3.822 25.322,-3.822Z" style="fill:url(#_Linear11);"/><path d="M1890.06,304.136c20.305,0 31.055,-11.466 31.055,-26.038c0,-11.705 -7.883,-20.544 -24.605,-20.544c-20.305,0 -30.816,11.944 -30.816,26.755c0,11.227 7.644,19.827 24.366,19.827Zm25.799,7.883c0,0 -32.249,11.944 -68.559,11.944l0.717,2.15c7.644,0 11.227,2.389 11.227,9.078c0,0.956 -0.239,3.105 -0.478,4.778l-9.077,65.215c-0.478,3.105 -0.478,5.494 -0.478,8.122c0.717,19.588 16.961,22.932 27.71,22.932c22.933,0 36.072,-10.272 36.072,-10.272l-0.956,-1.672c-2.389,1.434 -4.539,2.15 -6.689,2.15c-2.866,0 -4.777,-1.911 -4.777,-5.494c0,-1.433 0.239,-3.344 0.716,-6.45l14.572,-102.481Z" style="fill:url(#_Linear12);"/><path d="M2015.95,313.93c6.928,0 9.317,5.972 9.317,13.378c0,9.077 -5.017,20.544 -10.033,26.994c4.538,4.538 13.616,7.166 21.021,7.166c16.244,0 25.8,-9.077 25.8,-21.26c0,-16.245 -17.2,-28.189 -47.538,-28.189c-46.821,0 -85.042,33.205 -85.042,72.86c0,31.054 21.499,51.359 62.109,51.359c25.083,0 43.238,-7.405 58.288,-22.693l-0.717,-0.956c-10.511,6.45 -21.261,10.272 -34.399,10.272c-19.827,0 -28.905,-17.438 -28.905,-40.132c0,-38.222 16.005,-68.799 30.099,-68.799Z" style="fill:url(#_Linear13);"/><path d="M2131.57,418.8c-4.3,0 -8.839,-4.778 -8.839,-26.038c0,-27.233 7.883,-78.832 23.649,-78.832c5.734,0 8.6,6.211 8.6,22.933c0,32.249 -11.705,81.937 -23.41,81.937Zm81.937,-106.781c0,0 -8.361,6.211 -22.217,6.211c-16.244,0 -27.471,-6.211 -43.954,-6.211c-50.643,0 -80.743,34.638 -80.743,78.832c0,25.799 13.139,45.387 37.266,45.387c25.561,0 38.46,-14.571 45.627,-42.998l1.911,0c-2.389,7.405 -3.106,13.377 -3.106,19.349c0,19.111 16.245,23.649 26.994,23.649c22.933,0 35.116,-10.272 35.116,-10.272l-0.956,-1.672c-2.388,1.434 -4.538,2.15 -6.688,2.15c-2.867,0 -4.778,-1.911 -4.778,-5.494c0,-1.433 0.239,-3.583 0.717,-6.689l14.811,-102.242Z" style="fill:url(#_Linear14);"/><path d="M2304.76,252.299c0,0 -32.249,11.944 -68.56,11.944l0.717,2.15c7.644,0 11.228,2.389 11.228,9.077c0,0.956 -0.239,3.106 -0.478,4.778l-17.678,124.936c-0.477,3.105 -0.477,5.494 -0.477,8.122c0.716,19.588 16.96,22.932 27.71,22.932c22.933,0 36.071,-10.272 36.071,-10.272l-0.955,-1.672c-2.389,1.434 -4.539,2.15 -6.689,2.15c-2.866,0 -4.777,-1.911 -4.777,-5.494c0,-1.433 0.238,-3.344 0.716,-6.45l23.172,-162.201Z" style="fill:url(#_Linear15);"/></g></g><defs><linearGradient id="_Linear1" x1="0" y1="0" x2="1" y2="0" gradientUnits="userSpaceOnUse" gradientTransform="matrix(2122.95,0,0,238.883,172.493,371.74)"><stop offset="0%" style="stop-color:#a133d5;stop-opacity:1"/><stop offset="100%" style="stop-color:#d73f59;stop-opacity:1"/></linearGradient><linearGradient id="_Linear2" x1="0" y1="0" x2="1" y2="0" gradientUnits="userSpaceOnUse" gradientTransform="matrix(2122.95,0,0,238.883,172.493,371.74)"><stop offset="0%" style="stop-color:#a133d5;stop-opacity:1"/><stop offset="100%" style="stop-color:#d73f59;stop-opacity:1"/></linearGradient><linearGradient id="_Linear3" x1="0" y1="0" x2="1" y2="0" gradientUnits="userSpaceOnUse" gradientTransform="matrix(2122.95,0,0,238.883,172.493,371.74)"><stop offset="0%" style="stop-color:#a133d5;stop-opacity:1"/><stop offset="100%" style="stop-color:#d73f59;stop-opacity:1"/></linearGradient><linearGradient id="_Linear4" x1="0" y1="0" x2="1" y2="0" gradientUnits="userSpaceOnUse" gradientTransform="matrix(2122.95,0,0,238.883,172.493,371.74)"><stop offset="0%" style="stop-color:#a133d5;stop-opacity:1"/><stop offset="100%" style="stop-color:#d73f59;stop-opacity:1"/></linearGradient><linearGradient id="_Linear5" x1="0" y1="0" x2="1" y2="0" gradientUnits="userSpaceOnUse" gradientTransform="matrix(2122.95,0,0,238.883,172.493,371.74)"><stop offset="0%" style="stop-color:#a133d5;stop-opacity:1"/><stop offset="100%" style="stop-color:#d73f59;stop-opacity:1"/></linearGradient><linearGradient id="_Linear6" x1="0" y1="0" x2="1" y2="0" gradientUnits="userSpaceOnUse" gradientTransform="matrix(2122.95,0,0,238.883,172.493,371.74)"><stop offset="0%" style="stop-color:#a133d5;stop-opacity:1"/><stop offset="100%" style="stop-color:#d73f59;stop-opacity:1"/></linearGradient><linearGradient id="_Linear7" x1="0" y1="0" x2="1" y2="0" gradientUnits="userSpaceOnUse" gradientTransform="matrix(2122.95,0,0,238.883,172.493,371.74)"><stop offset="0%" style="stop-color:#a133d5;stop-opacity:1"/><stop offset="100%" style="stop-color:#d73f59;stop-opacity:1"/></linearGradient><linearGradient id="_Linear8" x1="0" y1="0" x2="1" y2="0" gradientUnits="userSpaceOnUse" gradientTransform="matrix(2122.95,0,0,238.883,172.493,371.74)"><stop offset="0%" style="stop-color:#a133d5;stop-opacity:1"/><stop offset="100%" style="stop-color:#d73f59;stop-opacity:1"/></linearGradient><linearGradient id="_Linear9" x1="0" y1="0" x2="1" y2="0" gradientUnits="userSpaceOnUse" gradientTransform="matrix(2122.95,0,0,238.883,172.493,371.74)"><stop offset="0%" style="stop-color:#a133d5;stop-opacity:1"/><stop offset="100%" style="stop-color:#d73f59;stop-opacity:1"/></linearGradient><linearGradient id="_Linear10" x1="0" y1="0" x2="1" y2="0" gradientUnits="userSpaceOnUse" gradientTransform="matrix(2122.95,0,0,238.883,172.493,371.74)"><stop offset="0%" style="stop-color:#a133d5;stop-opacity:1"/><stop offset="100%" style="stop-color:#d73f59;stop-opacity:1"/></linearGradient><linearGradient id="_Linear11" x1="0" y1="0" x2="1" y2="0" gradientUnits="userSpaceOnUse" gradientTransform="matrix(2122.95,0,0,238.883,172.493,371.74)"><stop offset="0%" style="stop-color:#a133d5;stop-opacity:1"/><stop offset="100%" style="stop-color:#d73f59;stop-opacity:1"/></linearGradient><linearGradient id="_Linear12" x1="0" y1="0" x2="1" y2="0" gradientUnits="userSpaceOnUse" gradientTransform="matrix(2122.95,0,0,238.883,172.493,371.74)"><stop offset="0%" style="stop-color:#a133d5;stop-opacity:1"/><stop offset="100%" style="stop-color:#d73f59;stop-opacity:1"/></linearGradient><linearGradient id="_Linear13" x1="0" y1="0" x2="1" y2="0" gradientUnits="userSpaceOnUse" gradientTransform="matrix(2122.95,0,0,238.883,172.493,371.74)"><stop offset="0%" style="stop-color:#a133d5;stop-opacity:1"/><stop offset="100%" style="stop-color:#d73f59;stop-opacity:1"/></linearGradient><linearGradient id="_Linear14" x1="0" y1="0" x2="1" y2="0" gradientUnits="userSpaceOnUse" gradientTransform="matrix(2122.95,0,0,238.883,172.493,371.74)"><stop offset="0%" style="stop-color:#a133d5;stop-opacity:1"/><stop offset="100%" style="stop-color:#d73f59;stop-opacity:1"/></linearGradient><linearGradient id="_Linear15" x1="0" y1="0" x2="1" y2="0" gradientUnits="userSpaceOnUse" gradientTransform="matrix(2122.95,0,0,238.883,172.493,371.74)"><stop offset="0%" style="stop-color:#a133d5;stop-opacity:1"/><stop offset="100%" style="stop-color:#d73f59;stop-opacity:1"/></linearGradient></defs></svg>