<?xml version="1.0" encoding="UTF-8" standalone="no"?><!DOCTYPE svg PUBLIC "-//W3C//DTD SVG 1.1//EN" "http://www.w3.org/Graphics/SVG/1.1/DTD/svg11.dtd"><svg width="100%" height="100%" viewBox="0 0 354 354" version="1.1" xmlns="http://www.w3.org/2000/svg" xmlns:xlink="http://www.w3.org/1999/xlink" xml:space="preserve" style="fill-rule:evenodd;clip-rule:evenodd;stroke-linejoin:round;stroke-miterlimit:1.41421;"><path id="Users-Icon" d="M249.203,210.371c22.331,-16.945 37.711,-52.453 37.711,-88.995c0,-45.891 -27.643,-77.245 -66.211,-77.245c-9.242,0 -17.858,1.796 -25.614,5.167c16.143,17.75 25.614,42.979 25.614,72.078c0,22.207 -4.73,43.872 -13.068,62.609l0.345,0.163c15.308,7.158 29.356,16.137 41.223,26.223l0,0Zm16.316,16.177c7.67,-6.143 14.834,-13.754 21.395,-22.409c37.669,17.615 66.211,48.011 66.211,71.729c0,14.547 -16.018,24.367 -44.14,27.588c-10.565,2.454 -22.128,3.852 -37.263,4.626c9.69,-8.003 15.192,-18.695 15.192,-32.214c0,-16.519 -8.014,-33.654 -21.395,-49.32l0,0Zm-66.887,-22.409c-18.146,23.926 -40.902,39.935 -66.21,38.62c-25.309,1.315 -48.064,-14.694 -66.212,-38.62c-37.669,17.615 -66.21,48.011 -66.21,71.729c0,14.547 16.011,24.367 44.139,27.588c20.019,4.644 43.601,5.519 88.283,5.519c44.681,0 68.268,-0.875 88.281,-5.519c28.123,-3.221 44.142,-13.041 44.142,-27.588c0,-23.718 -28.544,-54.114 -66.213,-71.729Zm-66.21,16.554c36.658,0 66.21,-48.66 66.21,-99.317c0,-45.891 -27.642,-77.245 -66.21,-77.245c-38.573,0 -66.212,31.348 -66.212,77.245c0,50.657 29.553,99.317 66.212,99.317Z"/></svg>