<?xml version="1.0" encoding="UTF-8" standalone="no"?><!DOCTYPE svg PUBLIC "-//W3C//DTD SVG 1.1//EN" "http://www.w3.org/Graphics/SVG/1.1/DTD/svg11.dtd"><svg width="100%" height="100%" viewBox="0 0 354 354" version="1.1" xmlns="http://www.w3.org/2000/svg" xmlns:xlink="http://www.w3.org/1999/xlink" xml:space="preserve" style="fill-rule:evenodd;clip-rule:evenodd;stroke-linejoin:round;stroke-miterlimit:1.41421;"><path id="Lock-Icon" d="M301.622,353.106l-250.117,0c-12.188,0 -22.069,-9.878 -22.069,-22.069l0,-176.549c0,-12.192 9.881,-22.07 22.069,-22.07l36.784,0l0,-44.135c0,-48.757 39.521,-88.283 88.274,-88.283c48.755,0 88.277,39.526 88.277,88.283l0,44.135l36.782,0c12.188,0 22.067,9.878 22.067,22.07l0,176.549c0,12.191 -9.879,22.069 -22.067,22.069Zm-147.128,-58.847l44.137,0l-11.539,-46.166c11.034,-4.246 18.896,-14.871 18.896,-27.392c0,-16.258 -13.173,-29.428 -29.425,-29.428c-16.252,0 -29.424,13.17 -29.424,29.428c0,12.521 7.864,23.146 18.896,27.392l-11.541,46.166Zm80.921,-205.976c0,-32.503 -26.349,-58.855 -58.852,-58.855c-32.501,0 -58.849,26.352 -58.849,58.855l0,44.135l117.701,0l0,-44.135Z" style="fill:#ebeff3;"/></svg>