<?xml version="1.0" encoding="UTF-8" standalone="no"?><!DOCTYPE svg PUBLIC "-//W3C//DTD SVG 1.1//EN" "http://www.w3.org/Graphics/SVG/1.1/DTD/svg11.dtd"><svg width="100%" height="100%" viewBox="0 0 354 354" version="1.1" xmlns="http://www.w3.org/2000/svg" xmlns:xlink="http://www.w3.org/1999/xlink" xml:space="preserve" style="fill-rule:evenodd;clip-rule:evenodd;stroke-linejoin:round;stroke-miterlimit:1.41421;"><path id="User-Icon" d="M294.326,347.465c-26.74,4.454 -58.186,5.641 -117.763,5.641c-59.575,0 -91.023,-1.187 -117.761,-5.641c-37.45,-6.237 -58.802,-19.591 -58.802,-42.025c0,-29.637 38.136,-70.969 91.16,-94.887c21.43,32.492 51.688,54.282 85.403,54.282c33.713,0 63.972,-21.79 85.402,-54.282c53.023,23.918 91.16,65.25 91.16,94.887c0,22.434 -21.35,35.788 -58.799,42.025Zm-117.763,-112.059c-48.876,0 -88.281,-64.879 -88.281,-131.545c0,-62.073 36.854,-103.861 88.281,-103.861c51.427,0 88.283,41.788 88.283,103.861c0,66.666 -39.408,131.545 -88.283,131.545Z" style="fill:#ebeff3;"/></svg>